<svg xmlns="http://www.w3.org/2000/svg" viewBox="0 0 1000 600">
	<path d="M0 0h1000v600H0z"/>
	<g transform="matrix(1.19375 0 0 1.19375 28.572 -50.486)">
		<circle cx="394.915" cy="293.601" r="166.667"/>
		<path fill="#fff"
			  d="M95.986 368.601H80.778v-150h13.065l68.572 116.994h-6.846l67.917-116.994h13.065v150h-15.208v-126.22h3.631l-62.56 107.143h-7.5L91.91 242.38h4.077v126.22Zm203.571-69.434v-13.482h79.286v13.482h-79.286Zm1.727-66.846v122.56h90.208v13.72H285.421v-150h102.857v13.72h-86.994Zm143.333 136.28h-15.833v-150h56.13q19.078 0 32.798 6.101 13.69 6.102 21.101 17.59 7.381 11.458 7.381 27.738 0 15.863-7.38 27.321-7.411 11.459-21.102 17.56-13.72 6.13-32.797 6.13h-47.352l7.054-7.291v54.851Zm103.929 0h-17.352l-38.571-54.434h17.143l38.78 54.434Zm-103.929-143.78v90.209l-7.054-7.5h46.935q22.5 0 34.167-9.851 11.666-9.852 11.666-27.65 0-18.005-11.666-27.856-11.667-9.852-34.167-9.852h-46.935l7.054-7.5Zm154.94 143.78h-15.863v-150h13.066L700.272 348.9h-6.846V218.6h15.625v150h-13.065L592.712 238.304h6.845V368.6Z"/>
	</g>
</svg>